<?xml version="1.0" encoding="UTF-8"?>
<!DOCTYPE svg PUBLIC "-//W3C//DTD SVG 1.1//EN" "http://www.w3.org/Graphics/SVG/1.1/DTD/svg11.dtd">
<svg xmlns="http://www.w3.org/2000/svg" version="1.1" width="227px" height="222px" style="shape-rendering:geometricPrecision; text-rendering:geometricPrecision; image-rendering:optimizeQuality; fill-rule:evenodd; clip-rule:evenodd" xmlns:xlink="http://www.w3.org/1999/xlink">
<g><path style="opacity:1" fill="#fbfafa" d="M -0.5,-0.5 C 10.8333,-0.5 22.1667,-0.5 33.5,-0.5C 15.1667,3.83333 3.83333,15.1667 -0.5,33.5C -0.5,22.1667 -0.5,10.8333 -0.5,-0.5 Z"/></g>
<g><path style="opacity:1" fill="#320000" d="M 33.5,-0.5 C 85.8333,-0.5 138.167,-0.5 190.5,-0.5C 209.946,2.94546 221.946,14.2788 226.5,33.5C 226.5,84.1667 226.5,134.833 226.5,185.5C 222.954,205.38 211.287,217.38 191.5,221.5C 138.833,221.5 86.1667,221.5 33.5,221.5C 14.2788,216.946 2.94546,204.946 -0.5,185.5C -0.5,134.833 -0.5,84.1667 -0.5,33.5C 3.83333,15.1667 15.1667,3.83333 33.5,-0.5 Z"/></g>
<g><path style="opacity:1" fill="#faf9f9" d="M 190.5,-0.5 C 202.5,-0.5 214.5,-0.5 226.5,-0.5C 226.5,10.8333 226.5,22.1667 226.5,33.5C 221.946,14.2788 209.946,2.94546 190.5,-0.5 Z"/></g>
<g><path style="opacity:1" fill="#f89600" d="M 156.5,48.5 C 169.197,48.2414 174.03,54.2414 171,66.5C 167.268,72.0461 162.101,73.8794 155.5,72C 148.93,68.3449 146.763,62.8449 149,55.5C 151.015,52.5883 153.515,50.255 156.5,48.5 Z"/></g>
<g><path style="opacity:1" fill="#fc9800" d="M 78.5,56.5 C 87.5,56.5 96.5,56.5 105.5,56.5C 117.036,89.7761 128.37,123.109 139.5,156.5C 132.159,156.666 124.826,156.5 117.5,156C 114.74,148.555 112.073,141.055 109.5,133.5C 97.8333,132.167 86.1667,132.167 74.5,133.5C 71.9267,141.055 69.26,148.555 66.5,156C 59.8417,156.5 53.175,156.666 46.5,156.5C 56.353,126.108 66.5197,95.7746 77,65.5C 77.696,62.5219 78.196,59.5219 78.5,56.5 Z"/></g>
<g><path style="opacity:1" fill="#320200" d="M 91.5,74.5 C 95.6358,87.3546 99.6358,100.355 103.5,113.5C 95.8333,113.5 88.1667,113.5 80.5,113.5C 84.371,100.554 88.0377,87.5541 91.5,74.5 Z"/></g>
<g><path style="opacity:1" fill="#fe9900" d="M 149.5,80.5 C 156.5,80.5 163.5,80.5 170.5,80.5C 170.5,105.833 170.5,131.167 170.5,156.5C 163.5,156.5 156.5,156.5 149.5,156.5C 149.5,131.167 149.5,105.833 149.5,80.5 Z"/></g>
<g><path style="opacity:1" fill="#fafafa" d="M -0.5,185.5 C 2.94546,204.946 14.2788,216.946 33.5,221.5C 22.1667,221.5 10.8333,221.5 -0.5,221.5C -0.5,209.5 -0.5,197.5 -0.5,185.5 Z"/></g>
<g><path style="opacity:1" fill="#faf9f9" d="M 226.5,185.5 C 226.5,197.5 226.5,209.5 226.5,221.5C 214.833,221.5 203.167,221.5 191.5,221.5C 211.287,217.38 222.954,205.38 226.5,185.5 Z"/></g>
</svg>
